<svg width="36" height="24" viewBox="0 0 36 24" fill="none" xmlns="http://www.w3.org/2000/svg">
<path d="M33.3871 0.799805L33.7658 0.800484C33.8682 0.801164 33.9708 0.802296 34.0739 0.805014C34.2535 0.809997 34.4632 0.819736 34.6589 0.854842C34.8288 0.885418 34.9714 0.931848 35.1082 1.00161C35.382 1.1408 35.6044 1.36345 35.7433 1.63736C35.8126 1.77326 35.8588 1.91504 35.8894 2.08649C35.9243 2.27992 35.934 2.49033 35.9388 2.67084C35.9417 2.77276 35.9431 2.87468 35.9433 2.97886C35.9444 3.10502 35.9444 3.23095 35.9444 3.35733V20.6426C35.9444 20.769 35.9444 20.8949 35.9435 21.0235C35.9431 21.1255 35.9417 21.2274 35.939 21.3293C35.934 21.5096 35.9243 21.72 35.889 21.9157C35.8633 22.0713 35.814 22.2222 35.7429 22.363C35.6037 22.637 35.3809 22.8597 35.1069 22.9988C34.971 23.0681 34.8288 23.1145 34.6605 23.1448C34.4609 23.1804 34.2421 23.1901 34.0775 23.1947C33.974 23.1969 33.8709 23.1985 33.7652 23.199C33.6395 23.1999 33.5131 23.1999 33.3871 23.1999H2.60786C2.48329 23.1999 2.35872 23.1999 2.23188 23.199C2.12995 23.1985 2.02803 23.1972 1.92612 23.1949C1.75761 23.1904 1.53882 23.1804 1.34087 23.1451C1.18436 23.119 1.03271 23.0694 0.891063 22.9979C0.755196 22.9288 0.631187 22.8386 0.523697 22.7306C0.415867 22.623 0.325811 22.4989 0.256891 22.363C0.185716 22.2214 0.136387 22.0698 0.110579 21.9134C0.0752466 21.718 0.0652811 21.5085 0.0607513 21.3295C0.0581925 21.2272 0.0566825 21.1249 0.0562215 21.0226L0.055542 20.7221V3.27806L0.0559949 2.97796C0.0564625 2.8755 0.0579725 2.77304 0.0605247 2.67061C0.0655075 2.49123 0.0752466 2.28173 0.110806 2.08468C0.136665 1.9286 0.185994 1.77733 0.257118 1.63601C0.325971 1.50056 0.415661 1.3769 0.524376 1.26841C0.632126 1.16049 0.756266 1.07029 0.892195 1.00115C1.03349 0.930167 1.18467 0.880844 1.34065 0.854842C1.53656 0.819736 1.74652 0.809997 1.92635 0.805014C2.02872 0.802296 2.13132 0.801164 2.23302 0.800484L2.61284 0.799805H33.3871Z" fill="white"/>
</svg>
