<svg width="8" height="10" viewBox="0 0 8 10" fill="none" xmlns="http://www.w3.org/2000/svg">
<path d="M5.10979 2.10171C5.42778 1.70422 5.6434 1.17039 5.58655 0.625C5.12134 0.648102 4.55376 0.931894 4.22489 1.32984C3.92978 1.67048 3.66863 2.22651 3.73658 2.74902C4.25886 2.79432 4.7807 2.48811 5.10979 2.10171Z" fill="black"/>
<path d="M5.58061 2.85119C4.82187 2.80589 4.17727 3.28152 3.81512 3.28152C3.45273 3.28152 2.89806 2.87384 2.29809 2.88493C1.51738 2.89626 0.793063 3.33791 0.396705 4.04003C-0.418205 5.44427 0.18154 7.52798 0.974255 8.67175C1.35906 9.23797 1.82291 9.86082 2.43398 9.8384C3.01153 9.81575 3.23779 9.46469 3.93946 9.46469C4.6409 9.46469 4.84474 9.8384 5.45604 9.82707C6.08975 9.81575 6.48611 9.26085 6.87092 8.69462C7.31257 8.04913 7.49309 7.42628 7.50441 7.39231C7.49309 7.38098 6.28227 6.91645 6.27095 5.52354C6.25962 4.35712 7.22175 3.80222 7.26705 3.76802C6.7237 2.96443 5.87482 2.87384 5.58038 2.85119" fill="black"/>
</svg>
